<svg xmlns="http://www.w3.org/2000/svg" width="80" height="80" viewBox="0 0 80 80">
  <rect x="0" y="0" width="80" height="80" rx="10" fill="#BA7517" fill-opacity="0.13" stroke="#EF9F27" stroke-width="1.5"/>
  <ellipse cx="40" cy="57" rx="30" ry="8" fill="#633806" fill-opacity="0.9"/>
  <path d="M23 57 Q20 26 30 18 Q40 12 50 18 Q60 26 57 57 Z" fill="#854F0B"/>
  <path d="M23 50 Q40 55 57 50" fill="none" stroke="#EF9F27" stroke-width="2.5" stroke-linecap="round"/>
  <circle cx="36" cy="50" r="2.5" fill="#FAC775"/>
  <circle cx="44" cy="50" r="2.5" fill="#FAC775"/>
  <path d="M32 20 Q40 16 48 20" fill="none" stroke="#412402" stroke-width="1.5" opacity="0.8"/>
  <polygon points="40,28 41.4,31.9 45.7,31.9 42.3,34.8 43.5,39 40,36.4 36.5,39 37.7,34.8 34.3,31.9 38.6,31.9" fill="#FAC775"/>
</svg>
