<svg xmlns="http://www.w3.org/2000/svg" width="80" height="80" viewBox="0 0 80 80">
  <rect x="0" y="0" width="80" height="80" rx="10" fill="#534AB7" fill-opacity="0.18" stroke="#7F77DD" stroke-width="2"/>
  <path d="M7 61 Q18 70 40 67 Q62 70 73 61 Q60 55 40 58 Q20 55 7 61 Z" fill="#26215C" fill-opacity="0.95"/>
  <path d="M26 61 Q23 27 32 17 Q40 11 48 17 Q57 27 54 61 Z" fill="#3C3489"/>
  <path d="M32 19 Q40 14 48 19" fill="none" stroke="#26215C" stroke-width="2.5" opacity="1"/>
  <path d="M26 52 Q40 57 54 52" fill="none" stroke="#AFA9EC" stroke-width="2.5" stroke-linecap="round"/>
  <circle cx="40" cy="33" r="9" fill="#EEEDFE" stroke="#7F77DD" stroke-width="1"/>
  <polygon points="40,26.5 41.5,30.5 45.8,30.5 42.5,33.5 43.8,37.8 40,35.5 36.2,37.8 37.5,33.5 34.2,30.5 38.5,30.5" fill="#534AB7"/>
  <circle cx="40" cy="34" r="1.5" fill="#EEEDFE"/>
</svg>
